<svg width="233" height="125" viewBox="0 0 233 125" fill="none" xmlns="http://www.w3.org/2000/svg">
<path d="M9.6 77C8.18667 77 7.48 76.2933 7.48 74.88V27.56C7.48 26.1467 8.18667 25.44 9.6 25.44C10.6133 25.44 11.4133 25.9067 12 26.84L31.92 57.28L30.96 57.4L50.88 26.84C51.44 25.9067 52.28 25.44 53.4 25.44C54.6533 25.44 55.28 26.1467 55.28 27.56V74.88C55.28 76.2933 54.5867 77 53.2 77C51.7867 77 51.08 76.2933 51.08 74.88V31.76L52.32 32.16L33.84 60.32C33.2533 61.2267 32.4133 61.68 31.32 61.68C30.36 61.68 29.5867 61.2267 29 60.32L10.52 32.16L11.68 32.6V74.88C11.68 76.2933 10.9867 77 9.6 77ZM85.8144 77C80.0277 77 75.801 75.6667 73.1344 73C70.4677 70.3333 69.1344 66.1067 69.1344 60.32V42.08C69.1344 36.24 70.4677 32 73.1344 29.36C75.801 26.6933 80.001 25.3867 85.7344 25.44H95.4144C101.201 25.44 105.414 26.7733 108.054 29.44C110.721 32.1067 112.054 36.3333 112.054 42.12V60.32C112.054 66.1067 110.721 70.3333 108.054 73C105.414 75.6667 101.201 77 95.4144 77H85.8144ZM85.8144 72.8H95.4144C98.481 72.8 100.921 72.4 102.734 71.6C104.548 70.8 105.854 69.4933 106.654 67.68C107.454 65.8667 107.854 63.4133 107.854 60.32V42.12C107.854 39.0533 107.454 36.6133 106.654 34.8C105.854 32.9867 104.548 31.68 102.734 30.88C100.921 30.0533 98.481 29.64 95.4144 29.64H85.7344C82.6677 29.6133 80.2277 30 78.4144 30.8C76.6277 31.5733 75.3344 32.88 74.5344 34.72C73.7344 36.5333 73.3344 38.9867 73.3344 42.08V60.32C73.3344 63.4133 73.7344 65.8667 74.5344 67.68C75.3344 69.4933 76.641 70.8 78.4544 71.6C80.2677 72.4 82.721 72.8 85.8144 72.8ZM128.038 77C126.624 77 125.918 76.2933 125.918 74.88V27.56C125.918 26.1467 126.624 25.44 128.038 25.44C128.784 25.44 129.504 25.8533 130.197 26.68L164.078 70.2H163.118V27.56C163.118 26.1467 163.824 25.44 165.238 25.44C166.624 25.44 167.318 26.1467 167.318 27.56V74.88C167.318 76.2933 166.624 77 165.238 77C164.464 77 163.744 76.5867 163.078 75.76L129.158 32.24H130.118V74.88C130.118 76.2933 129.424 77 128.038 77ZM178.206 76.8C176.926 76.24 176.539 75.3067 177.046 74L196.886 27.08C197.312 25.9867 198.099 25.44 199.246 25.44H199.486C200.579 25.4667 201.352 26.0133 201.806 27.08L221.646 74C222.179 75.3067 221.806 76.24 220.526 76.8C219.219 77.3333 218.312 76.96 217.806 75.68L212.486 63.08H186.286L180.966 75.68C180.432 76.96 179.512 77.3333 178.206 76.8ZM188.006 58.88H210.726L199.366 32.08L188.006 58.88Z" fill="black"/>
<path d="M6.8 117C6.09333 117 5.74 116.647 5.74 115.94V92.28C5.74 91.5733 6.09333 91.22 6.8 91.22H21.78C22.4867 91.22 22.84 91.5733 22.84 92.28C22.84 92.9733 22.4867 93.32 21.78 93.32H7.84V102.9H17.06C17.7667 102.9 18.12 103.247 18.12 103.94C18.12 104.647 17.7667 105 17.06 105H7.84V114.9H21.78C22.4867 114.9 22.84 115.247 22.84 115.94C22.84 116.647 22.4867 117 21.78 117H6.8ZM29.2219 117C28.5152 117 28.1619 116.647 28.1619 115.94V92.28C28.1619 91.5733 28.5152 91.22 29.2219 91.22H38.8619C42.1819 91.22 44.5952 91.98 46.1019 93.5C47.6219 95.02 48.3819 97.44 48.3819 100.76V107.46C48.3819 110.78 47.6219 113.2 46.1019 114.72C44.5952 116.24 42.1819 117 38.8619 117H29.2219ZM30.2619 114.9H38.8619C40.6752 114.9 42.1219 114.66 43.2019 114.18C44.2952 113.7 45.0819 112.92 45.5619 111.84C46.0419 110.747 46.2819 109.287 46.2819 107.46V100.76C46.2819 98.9467 46.0419 97.5 45.5619 96.42C45.0819 95.3267 44.2952 94.54 43.2019 94.06C42.1219 93.5667 40.6752 93.32 38.8619 93.32H30.2619V114.9ZM56.3703 117C56.037 117 55.777 116.907 55.5903 116.72C55.4036 116.533 55.3103 116.273 55.3103 115.94V92.26C55.3103 91.9267 55.4036 91.6667 55.5903 91.48C55.777 91.2933 56.037 91.2 56.3703 91.2C56.6903 91.2 56.9436 91.2933 57.1303 91.48C57.317 91.6667 57.4103 91.9267 57.4103 92.26V115.94C57.4103 116.273 57.317 116.533 57.1303 116.72C56.9436 116.907 56.6903 117 56.3703 117ZM72.5006 117.02C72.1806 117.02 71.9206 116.927 71.7206 116.74C71.534 116.553 71.4406 116.3 71.4406 115.98V93.3H62.9406C62.6206 93.3 62.3606 93.2067 62.1606 93.02C61.974 92.8333 61.8806 92.58 61.8806 92.26C61.8806 91.94 61.974 91.6867 62.1606 91.5C62.3606 91.3 62.6206 91.2 62.9406 91.2H82.0606C82.3806 91.2 82.634 91.3 82.8206 91.5C83.0073 91.6867 83.1006 91.94 83.1006 92.26C83.1006 92.58 83.0073 92.8333 82.8206 93.02C82.634 93.2067 82.3806 93.3 82.0606 93.3H73.5406V115.98C73.5406 116.287 73.4406 116.54 73.2406 116.74C73.054 116.927 72.8073 117.02 72.5006 117.02ZM88.6359 117C88.3026 117 88.0426 116.907 87.8559 116.72C87.6693 116.533 87.5759 116.273 87.5759 115.94V92.26C87.5759 91.9267 87.6693 91.6667 87.8559 91.48C88.0426 91.2933 88.3026 91.2 88.6359 91.2C88.9559 91.2 89.2093 91.2933 89.3959 91.48C89.5826 91.6667 89.6759 91.9267 89.6759 92.26V115.94C89.6759 116.273 89.5826 116.533 89.3959 116.72C89.2093 116.907 88.9559 117 88.6359 117ZM104.946 117C102.053 117 99.9396 116.333 98.6063 115C97.2729 113.667 96.6063 111.553 96.6063 108.66V99.54C96.6063 96.62 97.2729 94.5 98.6063 93.18C99.9396 91.8467 102.04 91.1933 104.906 91.22H109.746C112.64 91.22 114.746 91.8867 116.066 93.22C117.4 94.5533 118.066 96.6667 118.066 99.56V108.66C118.066 111.553 117.4 113.667 116.066 115C114.746 116.333 112.64 117 109.746 117H104.946ZM104.946 114.9H109.746C111.28 114.9 112.5 114.7 113.406 114.3C114.313 113.9 114.966 113.247 115.366 112.34C115.766 111.433 115.966 110.207 115.966 108.66V99.56C115.966 98.0267 115.766 96.8067 115.366 95.9C114.966 94.9933 114.313 94.34 113.406 93.94C112.5 93.5267 111.28 93.32 109.746 93.32H104.906C103.373 93.3067 102.153 93.5 101.246 93.9C100.353 94.2867 99.7063 94.94 99.3063 95.86C98.9063 96.7667 98.7063 97.9933 98.7063 99.54V108.66C98.7063 110.207 98.9063 111.433 99.3063 112.34C99.7063 113.247 100.36 113.9 101.266 114.3C102.173 114.7 103.4 114.9 104.946 114.9ZM126.058 117C125.351 117 124.998 116.647 124.998 115.94V92.28C124.998 91.5733 125.351 91.22 126.058 91.22C126.431 91.22 126.791 91.4267 127.138 91.84L144.078 113.6H143.598V92.28C143.598 91.5733 143.951 91.22 144.658 91.22C145.351 91.22 145.698 91.5733 145.698 92.28V115.94C145.698 116.647 145.351 117 144.658 117C144.271 117 143.911 116.793 143.578 116.38L126.618 94.62H127.098V115.94C127.098 116.647 126.751 117 126.058 117ZM159.782 116.96C157.395 116.96 155.622 116.433 154.462 115.38C153.315 114.313 152.702 112.64 152.622 110.36C152.609 110.04 152.695 109.787 152.882 109.6C153.082 109.4 153.342 109.3 153.662 109.3C153.982 109.3 154.235 109.393 154.422 109.58C154.609 109.767 154.715 110.02 154.742 110.34C154.795 112.02 155.195 113.193 155.942 113.86C156.689 114.527 157.969 114.86 159.782 114.86H165.542C167.435 114.86 168.749 114.493 169.482 113.76C170.229 113.013 170.602 111.707 170.602 109.84C170.602 107.947 170.229 106.633 169.482 105.9C168.749 105.153 167.435 104.78 165.542 104.78H160.062C157.715 104.78 155.995 104.233 154.902 103.14C153.809 102.047 153.262 100.333 153.262 98C153.262 95.6667 153.802 93.9533 154.882 92.86C155.975 91.7667 157.689 91.22 160.022 91.22H165.622C167.862 91.22 169.522 91.72 170.602 92.72C171.695 93.72 172.282 95.2933 172.362 97.44C172.389 97.76 172.302 98.02 172.102 98.22C171.915 98.4067 171.655 98.5 171.322 98.5C171.015 98.5 170.769 98.4067 170.582 98.22C170.395 98.0333 170.289 97.78 170.262 97.46C170.209 95.9267 169.835 94.8533 169.142 94.24C168.449 93.6267 167.275 93.32 165.622 93.32H160.022C158.275 93.32 157.062 93.6667 156.382 94.36C155.702 95.04 155.362 96.2533 155.362 98C155.362 99.7467 155.702 100.967 156.382 101.66C157.075 102.34 158.302 102.68 160.062 102.68H165.542C168.022 102.68 169.835 103.26 170.982 104.42C172.129 105.567 172.702 107.373 172.702 109.84C172.702 112.307 172.129 114.113 170.982 115.26C169.835 116.393 168.022 116.96 165.542 116.96H159.782Z" fill="black"/>
</svg>
