<svg width="431" height="115" viewBox="0 0 431 115" fill="none" xmlns="http://www.w3.org/2000/svg">
<path d="M71 109C99.719 109 123 85.719 123 57C123 28.281 99.719 5 71 5C42.281 5 19 28.281 19 57C19 85.719 42.281 109 71 109Z" stroke="#1A1A1A" stroke-width="3"/>
<path d="M105 97C97.42 103.552 88.108 107.774 78.185 109.16C68.262 110.545 58.15 109.034 49.066 104.808C39.981 100.583 32.311 93.823 26.977 85.342C21.643 76.86 18.873 67.018 19 57" stroke="#B8844A" stroke-width="4" stroke-linecap="round"/>
<path d="M108 99C110.762 99 113 96.762 113 94C113 91.238 110.762 89 108 89C105.238 89 103 91.238 103 94C103 96.762 105.238 99 108 99Z" fill="#B8844A"/>
<path d="M19 64C21.762 64 24 61.762 24 59C24 56.238 21.762 54 19 54C16.238 54 14 56.238 14 59C14 61.762 16.238 64 19 64Z" fill="#B8844A"/>
<path d="M47 79V35L71 61L95 35V79" stroke="#1A1A1A" stroke-width="3" stroke-linecap="round" stroke-linejoin="round"/>
<path d="M147 17L147 104" stroke="#CECEC8" stroke-linecap="round"/>
<path d="M172 17.506H177.385L190.048 48.2092H190.485L203.147 17.506H208.532V54.494H204.312V26.3922H203.948L192.304 54.494H188.228L176.584 26.3922H176.22V54.494H172V17.506ZM249.018 36.0006C249.018 39.9015 248.309 43.2721 246.89 46.1138C245.47 48.9555 243.523 51.1462 241.05 52.6885C238.576 54.2295 235.749 55 232.571 55C229.393 55 226.568 54.2295 224.093 52.6885C221.619 51.1462 219.672 48.9555 218.252 46.1138C216.833 43.2721 216.124 39.9015 216.124 36.0006C216.124 32.0985 216.833 28.7279 218.252 25.8862C219.672 23.0445 221.619 20.8538 224.093 19.3128C226.568 17.7705 229.393 17 232.571 17C235.749 17 238.576 17.7705 241.05 19.3128C243.523 20.8538 245.47 23.0445 246.89 25.8862C248.309 28.7279 249.018 32.0985 249.018 36.0006ZM244.652 36.0006C244.652 32.7978 244.113 30.0947 243.033 27.8913C241.965 25.6879 240.516 24.0197 238.684 22.8881C236.864 21.7565 234.828 21.1907 232.571 21.1907C230.315 21.1907 228.271 21.7565 226.44 22.8881C224.621 24.0197 223.171 25.6879 222.091 27.8913C221.024 30.0947 220.49 32.7978 220.49 36.0006C220.49 39.2022 221.024 41.9053 222.091 44.1087C223.171 46.3121 224.621 47.9803 226.44 49.1119C228.271 50.2435 230.315 50.8093 232.571 50.8093C234.828 50.8093 236.864 50.2435 238.684 49.1119C240.516 47.9803 241.965 46.3121 243.033 44.1087C244.113 41.9053 244.652 39.2022 244.652 36.0006ZM286.152 17.506V54.494H281.786L261.481 25.4526H261.117V54.494H256.605V17.506H260.972L281.349 46.6198H281.713V17.506H286.152ZM296.709 54.494H291.979L305.66 17.506H310.318L324 54.494H319.269L308.134 23.3573H307.843L296.709 54.494ZM298.455 40.0451H317.523V44.0184H298.455V40.0451Z" fill="#1A1A1A"/>
<mask id="mask0_31_43" style="mask-type:luminance" maskUnits="userSpaceOnUse" x="0" y="0" width="431" height="115">
<path d="M431 0H0V115H431V0Z" fill="white"/>
<path d="M322.95 25.9346H166C164.895 25.9346 164 26.7324 164 27.7175V68.5612C164 69.5463 164.895 70.3442 166 70.3442H322.95C324.055 70.3442 324.95 69.5463 324.95 68.5612V27.7175C324.95 26.7324 324.055 25.9346 322.95 25.9346Z" fill="black"/>
<path d="M266.416 70.1855H167C165.895 70.1855 165 70.9843 165 71.9685V83.1476C165 84.1318 165.895 84.9305 167 84.9305H266.416C267.521 84.9305 268.416 84.1318 268.416 83.1476V71.9685C268.416 70.9843 267.521 70.1855 266.416 70.1855Z" fill="black"/>
<path d="M294.124 85.7393H166.904C165.799 85.7393 164.904 86.5371 164.904 87.5222V96.1205C164.904 97.1055 165.799 97.9034 166.904 97.9034H294.124C295.229 97.9034 296.124 97.1055 296.124 96.1205V87.5222C296.124 86.5371 295.229 85.7393 294.124 85.7393Z" fill="black"/>
</mask>
<g mask="url(#mask0_31_43)">
<path d="M328 64L427 64" stroke="#CECEC8" stroke-linecap="round"/>
</g>
<path d="M172 81.6767V63.2533H182.838V65.2318H174.173V71.4565H182.278V73.4373H174.173V79.6983H182.979V81.6767H172ZM192.302 81.6767H186.758V63.2533H192.546C194.289 63.2533 195.78 63.6225 197.019 64.3584C198.259 65.0918 199.209 66.1437 199.87 67.5166C200.528 68.8846 200.86 70.5204 200.86 72.4288C200.86 74.3469 200.526 75.9996 199.861 77.3845C199.193 78.7645 198.224 79.8262 196.949 80.5693C195.674 81.3076 194.124 81.6767 192.302 81.6767ZM188.934 79.6983H192.16C193.645 79.6983 194.877 79.4039 195.853 78.8152C196.829 78.2289 197.556 77.3917 198.035 76.306C198.515 75.2203 198.755 73.9271 198.755 72.4288C198.755 70.9402 198.518 69.6614 198.045 68.5878C197.572 67.5069 196.864 66.6794 195.923 66.1051C194.98 65.5237 193.809 65.2318 192.405 65.2318H188.934V79.6983ZM206.683 63.2533V81.6767H204.508V63.2533H206.683ZM210.061 65.2318V63.2533H223.53V65.2318H217.883V81.6767H215.708V65.2318H210.061ZM229.062 63.2533V81.6767H226.889V63.2533H229.062ZM248.578 72.465C248.578 74.4072 248.234 76.0865 247.55 77.5027C246.868 78.919 245.929 80.0095 244.735 80.7768C243.542 81.544 242.181 81.9276 240.649 81.9276C239.118 81.9276 237.754 81.544 236.562 80.7768C235.369 80.0095 234.431 78.919 233.747 77.5027C233.065 76.0865 232.721 74.4072 232.721 72.465C232.721 70.5204 233.065 68.8411 233.747 67.4273C234.431 66.011 235.369 64.9205 236.562 64.1533C237.754 63.3836 239.118 63 240.649 63C242.181 63 243.542 63.3836 244.735 64.1533C245.929 64.9205 246.868 66.011 247.55 67.4273C248.234 68.8411 248.578 70.5204 248.578 72.465ZM246.473 72.465C246.473 70.8702 246.212 69.5239 245.692 68.4261C245.177 67.3284 244.478 66.496 243.596 65.9338C242.719 65.3693 241.736 65.087 240.649 65.087C239.563 65.087 238.577 65.3693 237.693 65.9338C236.816 66.496 236.117 67.3284 235.598 68.4261C235.083 69.5239 234.826 70.8702 234.826 72.465C234.826 74.0598 235.083 75.4061 235.598 76.5039C236.117 77.6017 236.816 78.4316 237.693 78.9962C238.577 79.5608 239.563 79.8406 240.649 79.8406C241.736 79.8406 242.719 79.5608 243.596 78.9962C244.478 78.4316 245.177 77.6017 245.692 76.5039C246.212 75.4061 246.473 74.0598 246.473 72.465ZM266.476 63.2533V81.6767H264.371L254.584 67.2101H254.408V81.6767H252.233V63.2533H254.337L264.159 77.7536H264.335V63.2533H266.476ZM280.648 67.8592C280.545 66.9472 280.117 66.2403 279.369 65.736C278.621 65.2318 277.704 64.9808 276.615 64.9808C275.82 64.9808 275.124 65.1111 274.528 65.3765C273.938 65.6395 273.475 66.0014 273.143 66.4646C272.814 66.9255 272.652 67.4514 272.652 68.0377C272.652 68.5299 272.765 68.9521 272.993 69.3068C273.228 69.6542 273.524 69.9462 273.889 70.1802C274.251 70.407 274.63 70.5952 275.027 70.7472C275.425 70.8895 275.791 71.0078 276.123 71.097L277.948 71.6013C278.416 71.7267 278.936 71.9004 279.51 72.1224C280.088 72.3444 280.641 72.6484 281.166 73.032C281.699 73.4084 282.137 73.8957 282.483 74.4893C282.826 75.0828 283 75.8114 283 76.6752C283 77.6692 282.746 78.5691 282.236 79.3726C281.732 80.1784 280.996 80.8154 280.027 81.2907C279.061 81.7635 277.889 82 276.509 82C275.225 82 274.11 81.7877 273.169 81.3606C272.233 80.936 271.497 80.3425 270.958 79.58C270.427 78.82 270.126 77.9346 270.055 76.9261H272.301C272.36 77.6234 272.586 78.1976 272.983 78.6536C273.388 79.1047 273.896 79.4401 274.51 79.6621C275.131 79.8768 275.796 79.9854 276.509 79.9854C277.339 79.9854 278.085 79.8479 278.745 79.5704C279.406 79.2905 279.931 78.8997 280.317 78.4027C280.702 77.8984 280.895 77.3097 280.895 76.639C280.895 76.0262 280.728 75.5291 280.394 75.1455C280.062 74.7619 279.623 74.4507 279.079 74.2094C278.536 73.9705 277.948 73.7606 277.315 73.5797L275.107 72.9331C273.703 72.5181 272.593 71.927 271.774 71.1598C270.956 70.3925 270.547 69.3888 270.547 68.1463C270.547 67.1136 270.817 66.2161 271.363 65.4465C271.911 64.6744 272.649 64.0736 273.571 63.649C274.503 63.2171 275.54 63 276.685 63C277.842 63 278.872 63.2123 279.771 63.6394C280.672 64.0592 281.387 64.6358 281.911 65.3669C282.443 66.0979 282.725 66.9279 282.753 67.8592H280.648Z" fill="#B8844A"/>
<path d="M173.251 103.866H172L175.621 94.1338H176.853L180.476 103.866H179.223L176.275 95.6728H176.199L173.251 103.866ZM173.714 100.064H178.76V101.109H173.714V100.064ZM182.011 103.866V94.1338H185.344C186.114 94.1338 186.746 94.2626 187.241 94.5236C187.736 94.7795 188.102 95.1325 188.339 95.5825C188.577 96.0325 188.695 96.5443 188.695 97.1181C188.695 97.6919 188.577 98.2004 188.339 98.6437C188.102 99.087 187.737 99.4349 187.246 99.6892C186.754 99.9384 186.127 100.064 185.363 100.064H182.666V99H185.324C185.851 99 186.275 98.923 186.595 98.7725C186.92 98.6203 187.154 98.4045 187.298 98.1251C187.446 97.8441 187.52 97.5079 187.52 97.1181C187.52 96.7283 187.446 96.3871 187.298 96.096C187.151 95.8049 186.915 95.5791 186.59 95.4219C186.266 95.2596 185.837 95.1793 185.305 95.1793H183.205V103.866H182.011ZM186.653 99.4935L189.08 103.866H187.693L185.305 99.4935H186.653ZM190.146 95.1793V94.1338H197.542V95.1793H194.442V103.866H193.247V95.1793H190.146ZM211.137 97.175H209.942C209.871 96.8354 209.747 96.5376 209.571 96.2817C209.398 96.0241 209.186 95.81 208.935 95.636C208.687 95.457 208.414 95.3249 208.113 95.2362C207.809 95.1475 207.496 95.1024 207.169 95.1024C206.57 95.1024 206.029 95.2512 205.545 95.549C205.063 95.8468 204.68 96.2867 204.394 96.8655C204.112 97.446 203.97 98.1569 203.97 99C203.97 99.8431 204.112 100.554 204.394 101.133C204.68 101.713 205.063 102.152 205.545 102.449C206.029 102.747 206.57 102.896 207.169 102.896C207.496 102.896 207.809 102.852 208.113 102.764C208.414 102.675 208.687 102.543 208.935 102.369C209.186 102.192 209.398 101.974 209.571 101.718C209.747 101.459 209.871 101.161 209.942 100.825H211.137C211.047 101.322 210.883 101.767 210.645 102.16C210.408 102.553 210.111 102.888 209.759 103.164C209.406 103.435 209.009 103.642 208.569 103.786C208.133 103.928 207.665 104 207.169 104C206.326 104 205.579 103.796 204.924 103.391C204.268 102.985 203.755 102.409 203.378 101.661C203.002 100.914 202.816 100.027 202.816 99C202.816 97.9729 203.002 97.0863 203.378 96.3386C203.755 95.5908 204.268 95.0137 204.924 94.6089C205.579 94.2024 206.326 94 207.169 94C207.665 94 208.133 94.0719 208.569 94.2141C209.009 94.3563 209.406 94.5654 209.759 94.8414C210.111 95.1141 210.408 95.447 210.645 95.8401C210.883 96.2298 211.047 96.6748 211.137 97.175ZM213.066 103.866V94.1338H219.017V95.1793H214.261V98.468H218.711V99.5135H214.261V102.821H219.095V103.866H213.066ZM221.17 103.866V94.1338H224.503C225.274 94.1338 225.906 94.2626 226.401 94.5236C226.895 94.7795 227.261 95.1325 227.498 95.5825C227.735 96.0325 227.856 96.5443 227.856 97.1181C227.856 97.6919 227.735 98.2004 227.498 98.6437C227.261 99.087 226.896 99.4349 226.405 99.6892C225.915 99.9384 225.286 100.064 224.523 100.064H221.826V99H224.484C225.011 99 225.435 98.923 225.755 98.7725C226.079 98.6203 226.313 98.4045 226.459 98.1251C226.606 97.8441 226.679 97.5079 226.679 97.1181C226.679 96.7283 226.606 96.3871 226.459 96.096C226.311 95.8049 226.074 95.5791 225.75 95.4219C225.427 95.2596 224.998 95.1793 224.466 95.1793H222.365V103.866H221.17ZM225.813 99.4935L228.241 103.866H226.854L224.466 99.4935H225.813ZM229.305 95.1793V94.1338H236.703V95.1793H233.6V103.866H232.407V95.1793H229.305ZM239.74 94.1338V103.866H238.545V94.1338H239.74ZM242.135 103.866V94.1338H248.048V95.1793H243.329V98.468H247.606V99.5135H243.329V103.866H242.135ZM251.287 94.1338V103.866H250.094V94.1338H251.287ZM261.619 97.175H260.424C260.354 96.8354 260.231 96.5376 260.054 96.2817C259.88 96.0241 259.668 95.81 259.419 95.636C259.171 95.457 258.897 95.3249 258.595 95.2362C258.293 95.1475 257.978 95.1024 257.651 95.1024C257.054 95.1024 256.513 95.2512 256.029 95.549C255.545 95.8468 255.162 96.2867 254.878 96.8655C254.594 97.446 254.454 98.1569 254.454 99C254.454 99.8431 254.594 100.554 254.878 101.133C255.162 101.713 255.545 102.152 256.029 102.449C256.513 102.747 257.054 102.896 257.651 102.896C257.978 102.896 258.293 102.852 258.595 102.764C258.897 102.675 259.171 102.543 259.419 102.369C259.668 102.192 259.88 101.974 260.054 101.718C260.231 101.459 260.354 101.161 260.424 100.825H261.619C261.529 101.322 261.365 101.767 261.127 102.16C260.89 102.553 260.595 102.888 260.241 103.164C259.888 103.435 259.492 103.642 259.053 103.786C258.615 103.928 258.149 104 257.651 104C256.81 104 256.061 103.796 255.406 103.391C254.752 102.985 254.237 102.409 253.86 101.661C253.486 100.914 253.298 100.027 253.298 99C253.298 97.9729 253.486 97.0863 253.86 96.3386C254.237 95.5908 254.752 95.0137 255.406 94.6089C256.061 94.2024 256.81 94 257.651 94C258.149 94 258.615 94.0719 259.053 94.2141C259.492 94.3563 259.888 94.5654 260.241 94.8414C260.595 95.1141 260.89 95.447 261.127 95.8401C261.365 96.2298 261.529 96.6748 261.619 97.175ZM263.953 103.866H262.7L266.323 94.1338H267.555L271.176 103.866H269.925L266.977 95.6728H266.901L263.953 103.866ZM264.416 100.064H269.462V101.109H264.416V100.064ZM271.022 95.1793V94.1338H278.418V95.1793H275.317V103.866H274.122V95.1793H271.022ZM281.455 94.1338V103.866H280.262V94.1338H281.455ZM292.172 99C292.172 100.027 291.984 100.914 291.609 101.661C291.233 102.409 290.717 102.985 290.063 103.391C289.407 103.796 288.659 104 287.819 104C286.978 104 286.229 103.796 285.574 103.391C284.92 102.985 284.405 102.409 284.028 101.661C283.652 100.914 283.466 100.027 283.466 99C283.466 97.9729 283.652 97.0863 284.028 96.3386C284.405 95.5908 284.92 95.0137 285.574 94.6089C286.229 94.2024 286.978 94 287.819 94C288.659 94 289.407 94.2024 290.063 94.6089C290.717 95.0137 291.233 95.5908 291.609 96.3386C291.984 97.0863 292.172 97.9729 292.172 99ZM291.016 99C291.016 98.1569 290.873 97.446 290.587 96.8655C290.305 96.2867 289.921 95.8468 289.436 95.549C288.954 95.2512 288.415 95.1024 287.819 95.1024C287.222 95.1024 286.68 95.2512 286.195 95.549C285.713 95.8468 285.33 96.2867 285.044 96.8655C284.762 97.446 284.62 98.1569 284.62 99C284.62 99.8431 284.762 100.554 285.044 101.133C285.33 101.713 285.713 102.152 286.195 102.449C286.68 102.747 287.222 102.896 287.819 102.896C288.415 102.896 288.954 102.747 289.436 102.449C289.921 102.152 290.305 101.713 290.587 101.133C290.873 100.554 291.016 99.8431 291.016 99ZM302 94.1338V103.866H300.844L295.47 96.2248H295.374V103.866H294.18V94.1338H295.335L300.729 101.794H300.825V94.1338H302Z" fill="#1A1A1A"/>
</svg>
